<mxfile host="app.diagrams.net" modified="2022-09-14T06:49:27.742Z" agent="5.0 (Macintosh; Intel Mac OS X 10_15_7) AppleWebKit/537.36 (KHTML, like Gecko) Chrome/105.0.0.0 Safari/537.36" etag="9bGQd2KKb2k-v-LQbHmN" version="20.2.7" type="github">
  <diagram id="POT4i-4xtsjazcXrQrL8" name="第 1 页">
    <mxGraphModel dx="4753" dy="2403" grid="1" gridSize="10" guides="1" tooltips="1" connect="1" arrows="1" fold="1" page="1" pageScale="1" pageWidth="827" pageHeight="1169" math="0" shadow="0">
      <root>
        <mxCell id="0" />
        <mxCell id="1" parent="0" />
        <mxCell id="KfvdheSxafolYIc288O2-1" value="" style="rounded=0;whiteSpace=wrap;html=1;" vertex="1" parent="1">
          <mxGeometry x="20" y="20" width="2080" height="800" as="geometry" />
        </mxCell>
        <mxCell id="KfvdheSxafolYIc288O2-2" style="edgeStyle=orthogonalEdgeStyle;rounded=0;orthogonalLoop=1;jettySize=auto;html=1;exitX=1;exitY=0.5;exitDx=0;exitDy=0;entryX=0;entryY=0.5;entryDx=0;entryDy=0;" edge="1" parent="1" source="KfvdheSxafolYIc288O2-3" target="KfvdheSxafolYIc288O2-19">
          <mxGeometry relative="1" as="geometry" />
        </mxCell>
        <mxCell id="KfvdheSxafolYIc288O2-3" value="" style="rounded=0;whiteSpace=wrap;html=1;" vertex="1" parent="1">
          <mxGeometry x="70" y="110" width="1690" height="690" as="geometry" />
        </mxCell>
        <mxCell id="KfvdheSxafolYIc288O2-4" value="" style="edgeStyle=orthogonalEdgeStyle;rounded=0;orthogonalLoop=1;jettySize=auto;html=1;" edge="1" parent="1" source="KfvdheSxafolYIc288O2-5" target="KfvdheSxafolYIc288O2-18">
          <mxGeometry relative="1" as="geometry" />
        </mxCell>
        <mxCell id="KfvdheSxafolYIc288O2-5" value="" style="rounded=0;whiteSpace=wrap;html=1;" vertex="1" parent="1">
          <mxGeometry x="160" y="260" width="1160" height="510" as="geometry" />
        </mxCell>
        <mxCell id="KfvdheSxafolYIc288O2-6" style="edgeStyle=orthogonalEdgeStyle;rounded=0;orthogonalLoop=1;jettySize=auto;html=1;exitX=1;exitY=0.5;exitDx=0;exitDy=0;entryX=0;entryY=0.5;entryDx=0;entryDy=0;" edge="1" parent="1" source="KfvdheSxafolYIc288O2-7" target="KfvdheSxafolYIc288O2-12">
          <mxGeometry relative="1" as="geometry">
            <mxPoint x="510" y="458.75" as="targetPoint" />
          </mxGeometry>
        </mxCell>
        <mxCell id="KfvdheSxafolYIc288O2-7" value="普通组合班(精品)" style="rounded=0;whiteSpace=wrap;html=1;" vertex="1" parent="1">
          <mxGeometry x="240" y="410" width="150" height="50" as="geometry" />
        </mxCell>
        <mxCell id="KfvdheSxafolYIc288O2-8" style="edgeStyle=orthogonalEdgeStyle;rounded=0;orthogonalLoop=1;jettySize=auto;html=1;exitX=1;exitY=0.5;exitDx=0;exitDy=0;" edge="1" parent="1" source="KfvdheSxafolYIc288O2-12">
          <mxGeometry relative="1" as="geometry">
            <mxPoint x="1070" y="435" as="targetPoint" />
          </mxGeometry>
        </mxCell>
        <mxCell id="KfvdheSxafolYIc288O2-9" value="小于" style="edgeLabel;html=1;align=center;verticalAlign=middle;resizable=0;points=[];" vertex="1" connectable="0" parent="KfvdheSxafolYIc288O2-8">
          <mxGeometry x="-0.2" y="2" relative="1" as="geometry">
            <mxPoint as="offset" />
          </mxGeometry>
        </mxCell>
        <mxCell id="KfvdheSxafolYIc288O2-10" style="edgeStyle=orthogonalEdgeStyle;rounded=0;orthogonalLoop=1;jettySize=auto;html=1;exitX=0.5;exitY=1;exitDx=0;exitDy=0;" edge="1" parent="1" source="KfvdheSxafolYIc288O2-12">
          <mxGeometry relative="1" as="geometry">
            <mxPoint x="715" y="630" as="targetPoint" />
          </mxGeometry>
        </mxCell>
        <mxCell id="KfvdheSxafolYIc288O2-11" value="大于等于" style="edgeLabel;html=1;align=center;verticalAlign=middle;resizable=0;points=[];" vertex="1" connectable="0" parent="KfvdheSxafolYIc288O2-10">
          <mxGeometry x="-0.2754" relative="1" as="geometry">
            <mxPoint x="25" y="19" as="offset" />
          </mxGeometry>
        </mxCell>
        <mxCell id="KfvdheSxafolYIc288O2-12" value="&lt;span&gt;根据组合内价格降序排序并过滤固定价格&lt;br&gt;（&lt;/span&gt;&lt;span style=&quot;background-color: rgb(255 , 255 , 255) ; font-family: &amp;#34;jetbrains mono&amp;#34; , monospace ; font-size: 9.8pt&quot;&gt;is_fixed_price=true&lt;/span&gt;&lt;span&gt;）&lt;/span&gt;&lt;br&gt;&lt;span&gt;课程后取第一个值进行判断是否大于等于&lt;br&gt;&lt;/span&gt;&lt;span style=&quot;background-color: rgb(255 , 255 , 255) ; font-family: &amp;#34;jetbrains mono&amp;#34; , monospace ; font-size: 9.8pt&quot;&gt;accord_with_price&lt;/span&gt;" style="rhombus;whiteSpace=wrap;html=1;" vertex="1" parent="1">
          <mxGeometry x="510" y="330" width="410" height="210" as="geometry" />
        </mxCell>
        <mxCell id="KfvdheSxafolYIc288O2-13" style="edgeStyle=orthogonalEdgeStyle;rounded=0;orthogonalLoop=1;jettySize=auto;html=1;exitX=0.5;exitY=0;exitDx=0;exitDy=0;entryX=0.5;entryY=0;entryDx=0;entryDy=0;" edge="1" parent="1" source="KfvdheSxafolYIc288O2-14" target="KfvdheSxafolYIc288O2-12">
          <mxGeometry relative="1" as="geometry">
            <Array as="points">
              <mxPoint x="1145" y="310" />
              <mxPoint x="715" y="310" />
            </Array>
          </mxGeometry>
        </mxCell>
        <mxCell id="KfvdheSxafolYIc288O2-14" value="累加下一个课程的价格" style="rounded=0;whiteSpace=wrap;html=1;" vertex="1" parent="1">
          <mxGeometry x="1070" y="410" width="150" height="50" as="geometry" />
        </mxCell>
        <mxCell id="KfvdheSxafolYIc288O2-15" value="将剩余未累加的课程价格求和并乘以&lt;span style=&quot;color: rgb(6 , 125 , 23) ; background-color: rgb(255 , 255 , 255) ; font-family: &amp;#34;jetbrains mono&amp;#34; , monospace ; font-size: 9.8pt&quot;&gt;discount&lt;/span&gt;&lt;span style=&quot;color: rgb(6 , 125 , 23) ; background-color: rgb(255 , 255 , 255) ; font-family: &amp;#34;jetbrains mono&amp;#34; , monospace ; font-size: 9.8pt&quot;&gt;字段的值后将所有固定价格的课程价格相加&lt;br&gt;&lt;br&gt;(price1+price2+...)*discount+(&lt;/span&gt;&lt;span style=&quot;color: rgb(6 , 125 , 23) ; font-family: &amp;#34;jetbrains mono&amp;#34; , monospace ; font-size: 13.0667px ; background-color: rgb(255 , 255 , 255)&quot;&gt;fixed1+&lt;/span&gt;&lt;span style=&quot;color: rgb(6 , 125 , 23) ; font-family: &amp;#34;jetbrains mono&amp;#34; , monospace ; font-size: 13.0667px ; background-color: rgb(255 , 255 , 255)&quot;&gt;fixed2+...&lt;/span&gt;&lt;span style=&quot;color: rgb(6 , 125 , 23) ; background-color: rgb(255 , 255 , 255) ; font-family: &amp;#34;jetbrains mono&amp;#34; , monospace ; font-size: 9.8pt&quot;&gt;)&lt;/span&gt;&lt;span style=&quot;color: rgb(6 , 125 , 23) ; font-family: &amp;#34;jetbrains mono&amp;#34; , monospace ; font-size: 13.0667px ; background-color: rgb(255 , 255 , 255)&quot;&gt;is_fixed_price=true&lt;/span&gt;&lt;span style=&quot;color: rgb(6 , 125 , 23) ; background-color: rgb(255 , 255 , 255) ; font-family: &amp;#34;jetbrains mono&amp;#34; , monospace ; font-size: 9.8pt&quot;&gt;&lt;br&gt;&lt;/span&gt;" style="rounded=0;whiteSpace=wrap;html=1;" vertex="1" parent="1">
          <mxGeometry x="430" y="630" width="570" height="70" as="geometry" />
        </mxCell>
        <mxCell id="KfvdheSxafolYIc288O2-16" style="edgeStyle=orthogonalEdgeStyle;rounded=0;orthogonalLoop=1;jettySize=auto;html=1;exitX=0.5;exitY=1;exitDx=0;exitDy=0;entryX=0.15;entryY=-0.003;entryDx=0;entryDy=0;entryPerimeter=0;" edge="1" parent="1" source="KfvdheSxafolYIc288O2-17" target="KfvdheSxafolYIc288O2-5">
          <mxGeometry relative="1" as="geometry" />
        </mxCell>
        <mxCell id="KfvdheSxafolYIc288O2-17" value="笔试协议班" style="rounded=0;whiteSpace=wrap;html=1;" vertex="1" parent="1">
          <mxGeometry x="260" y="140" width="150" height="50" as="geometry" />
        </mxCell>
        <mxCell id="KfvdheSxafolYIc288O2-18" value="&lt;span&gt;根据&lt;/span&gt;&lt;br&gt;&lt;span&gt;apply_min_price&lt;br&gt;&lt;/span&gt;&lt;span&gt;apply_max_price&lt;br&gt;&lt;/span&gt;&lt;span&gt;确定价格范围，并按照&lt;br&gt;&lt;div&gt;apply_min_price_ratio&lt;/div&gt;&lt;div&gt;apply_max_price_ratio&lt;/div&gt;&lt;div&gt;apply_price_ratio&lt;/div&gt;&lt;div&gt;确定倍数&lt;/div&gt;&lt;div&gt;用合适的ratio*精品总价&lt;/div&gt;&lt;/span&gt;" style="rounded=0;whiteSpace=wrap;html=1;" vertex="1" parent="1">
          <mxGeometry x="1430" y="447.5" width="280" height="135" as="geometry" />
        </mxCell>
        <mxCell id="KfvdheSxafolYIc288O2-19" value="面试总价+面试精品价格(单价*天数)" style="rounded=0;whiteSpace=wrap;html=1;" vertex="1" parent="1">
          <mxGeometry x="1830" y="382.5" width="230" height="145" as="geometry" />
        </mxCell>
        <mxCell id="KfvdheSxafolYIc288O2-20" style="edgeStyle=orthogonalEdgeStyle;rounded=0;orthogonalLoop=1;jettySize=auto;html=1;exitX=1;exitY=0.5;exitDx=0;exitDy=0;entryX=0.5;entryY=0;entryDx=0;entryDy=0;" edge="1" parent="1" source="KfvdheSxafolYIc288O2-21" target="KfvdheSxafolYIc288O2-3">
          <mxGeometry relative="1" as="geometry" />
        </mxCell>
        <mxCell id="KfvdheSxafolYIc288O2-21" value="笔面协议班" style="rounded=0;whiteSpace=wrap;html=1;" vertex="1" parent="1">
          <mxGeometry x="260" y="30" width="150" height="50" as="geometry" />
        </mxCell>
      </root>
    </mxGraphModel>
  </diagram>
</mxfile>
